<svg width="910" height="149" xmlns="http://www.w3.org/2000/svg">
 <style type="text/css">.st0{fill:#60CBDB;}</style>

 <g>
  <title>background</title>
  <rect fill="none" id="canvas_background" height="151" width="912" y="-1" x="-1"/>
 </g>
 <g>
  <title>Layer 1</title>
  <g id="svg_1">
   <path id="svg_2" d="m37.6,4.4l-31.6,0c-1.5,0 -2.6,1.2 -2.6,2.6l0,90.2c0,1.4 1.1,2.6 2.6,2.6l5.2,0c1.4,0 2.6,-1.2 2.6,-2.6l0,-32l23.9,0c16.6,0 30.4,-13.8 30.4,-30.7c0.1,-16.5 -13.7,-30.1 -30.5,-30.1zm-0.6,50.7l-23.1,0l0,-40.3l23.1,0c11.2,0 20.7,8.5 20.7,19.5c0,11.7 -9.6,20.8 -20.7,20.8z"/>
   <path id="svg_3" d="m888,61.2c11.9,-4.8 20.2,-15.3 20.2,-27.8c0,-16.2 -13.4,-29 -29.7,-29l-34.6,0c-1.5,0 -2.6,1.2 -2.6,2.6l0,90.2c0,1.4 1.1,2.6 2.6,2.6l5.3,0c1.4,0 2.6,-1.2 2.6,-2.6l0,-34.8l25.4,0l18.1,36.1c0.3,0.5 1,1.2 2.2,1.2l7,0c2.3,0 3.3,-2.2 2.3,-4l-18.8,-34.5zm-36,-7.7l0,-39.1l25.8,0c10.5,0 19.6,8.9 19.6,19.2c0,11.2 -9.1,19.9 -19.6,19.9l-25.8,0z" class="st0"/>
   <path id="svg_4" d="m170.8,99.8l51.2,0c1.5,0 2.6,-1.2 2.6,-2.6l0,-4c0,-1.4 -1.1,-2.6 -2.6,-2.6l-43.3,0l0,-34.8l39.6,0c1.4,0 2.6,-1.1 2.6,-2.6l0,-4c0,-1.4 -1.2,-2.6 -2.6,-2.6l-39.6,0l0,-33.3l43.3,0c1.5,0 2.6,-1.2 2.6,-2.6l0,-4c0,-1.4 -1.1,-2.6 -2.6,-2.6l-51.2,0c-1.5,0 -2.6,1.2 -2.6,2.6l0,90.2c0,1.7 1.1,2.9 2.6,2.9z"/>
   <path id="svg_5" d="m302.5,4.4l-63.8,0c-1.5,0 -2.6,1.2 -2.6,2.6l0,4c0,1.4 1.1,2.6 2.6,2.6l26.7,0l0,83.7c0,1.4 1.2,2.6 2.6,2.6l5.2,0c1.4,0 2.6,-1.2 2.6,-2.6l0,-83.7l26.7,0c1.5,0 2.6,-1.2 2.6,-2.6l0,-4c0,-1.4 -1.1,-2.6 -2.6,-2.6z"/>
   <path id="svg_6" d="m383.2,4.4l-63.8,0c-1.5,0 -2.6,1.2 -2.6,2.6l0,4c0,1.4 1.1,2.6 2.6,2.6l26.7,0l0,83.7c0,1.4 1.2,2.6 2.6,2.6l5.2,0c1.4,0 2.6,-1.2 2.6,-2.6l0,-83.7l26.7,0c1.5,0 2.6,-1.2 2.6,-2.6l0,-4c0,-1.4 -1.1,-2.6 -2.6,-2.6z"/>
   <path id="svg_7" d="m471,4.4l-6.4,0c-1,0 -1.8,0.7 -2.2,1.2l-27.5,38l-27.5,-38c-0.4,-0.5 -1.2,-1.2 -2.2,-1.2l-6.4,0c-2.2,0 -3.3,2.2 -2.2,4l32.9,45.5l0,43.3c0,1.4 1.1,2.6 2.6,2.6l5.3,0c1.4,0 2.6,-1.2 2.6,-2.6l0,-43.5l33.3,-45.4c0.9,-1.7 -0.1,-3.9 -2.3,-3.9z"/>
   <path id="svg_8" d="m553.2,90.7l-45.3,0l0,-83.7c0,-1.4 -1.2,-2.6 -2.6,-2.6l-5.3,0c-1.5,0 -2.6,1.2 -2.6,2.6l0,90.2c0,1.4 1.1,2.6 2.6,2.6l53.2,0c1.5,0 2.6,-1.2 2.6,-2.6l0,-4c-0.1,-1.3 -1.1,-2.5 -2.6,-2.5z" class="st0"/>
   <path id="svg_9" d="m581,4.4l-5.5,0c-1.4,0 -2.6,1.2 -2.6,2.6l0,90.2c0,1.4 1.2,2.6 2.6,2.6l5.5,0c1.4,0 2.6,-1.2 2.6,-2.6l0,-90.2c-0.1,-1.4 -1.3,-2.6 -2.6,-2.6z" class="st0"/>
   <path id="svg_10" d="m666.8,4.4l-63.8,0c-1.5,0 -2.6,1.2 -2.6,2.6l0,4c0,1.4 1.1,2.6 2.6,2.6l26.7,0l0,83.7c0,1.4 1.2,2.6 2.6,2.6l5.2,0c1.4,0 2.6,-1.2 2.6,-2.6l0,-83.7l26.7,0c1.5,0 2.6,-1.2 2.6,-2.6l0,-4c0,-1.4 -1.1,-2.6 -2.6,-2.6z" class="st0"/>
   <path id="svg_11" d="m748.7,4.4l-63.8,0c-1.5,0 -2.6,1.2 -2.6,2.6l0,4c0,1.4 1.1,2.6 2.6,2.6l26.7,0l0,83.7c0,1.4 1.2,2.6 2.6,2.6l5.2,0c1.4,0 2.6,-1.2 2.6,-2.6l0,-83.7l26.7,0c1.5,0 2.6,-1.2 2.6,-2.6l0,-4c0,-1.4 -1.1,-2.6 -2.6,-2.6z" class="st0"/>
   <path id="svg_12" d="m818.9,4.4l-51.2,0c-1.5,0 -2.6,1.2 -2.6,2.6l0,90.2c0,1.4 1.1,2.6 2.6,2.6l51.2,0c1.5,0 2.6,-1.2 2.6,-2.6l0,-4c0,-1.4 -1.1,-2.6 -2.6,-2.6l-43.3,0l0,-34.8l36.6,0c1.4,0 2.6,-1.1 2.6,-2.6l0,-4c0,-1.4 -1.2,-2.6 -2.6,-2.6l-36.6,0l0,-33.3l43.3,0c1.5,0 2.6,-1.2 2.6,-2.6l0,-4c0,-1.1 -1.1,-2.3 -2.6,-2.3z" class="st0"/>
   <path id="svg_13" d="m219.9,128.8c-1.5,-2 -4.3,-2.3 -6.3,-0.8c-6.2,4.6 -14.2,8.4 -24.7,8.4c-24.9,0 -37.4,-22.6 -50.8,-48.8l-1.4,-2.7c-2,-4 -7.5,-16.9 -11.7,-24.5l0,0c15,-2.7 23,-15.4 23,-28c0,-16.2 -13.4,-28 -29.7,-28l-32.6,0c-1.5,0 -2.6,1.2 -2.6,2.6l0,90.2c0,1.4 1.1,2.6 2.6,2.6l5.3,0c1.4,0 2.6,-1.2 2.6,-2.6l0,-35.8l20.8,0c3.7,6.7 11,23.5 13.7,28.8l1.4,2.7c14.1,27.6 28.4,52.8 59.1,52.8c12.9,0 22.8,-4.3 30.7,-10.4c2,-1.5 2.3,-4.4 0.8,-6.4l-0.2,-0.1zm-126.2,-114.4l23.8,0c10.5,0 19.6,7.9 19.6,18.2c0,13.3 -11.7,19.9 -25.5,19.9l-17.9,0l0,-38.1l0,0z"/>
  </g>
 </g>
</svg>